<svg width="330" height="330" viewBox="0 0 330 330" fill="none" xmlns="http://www.w3.org/2000/svg">
<g clip-path="url(#clip0_5_3)">
<mask id="mask0_5_3" style="mask-type:luminance" maskUnits="userSpaceOnUse" x="0" y="0" width="330" height="330">
<path d="M330 0H0V330H330V0Z" fill="white"/>
</mask>
<g mask="url(#mask0_5_3)">
<path d="M65.5274 155.418C82.0274 155.418 92.4172 142.94 91.111 130.144C88.9883 109.003 65.8024 108.281 64.4016 95.4852C63.7399 89.5039 67.2203 84.5539 73.4078 84.5539C78.7703 84.5539 85.2672 89.1945 81.7008 100.856H95.4164C100.306 87.1406 90.5867 72.9008 73.468 72.9008C58.2055 72.9008 49.3109 84.8633 50.6 96.6281C52.8602 117.159 75.2899 116.643 76.8969 131.287C77.5672 137.371 72.7547 143.352 65.4328 143.352C59.761 143.352 54.6391 139.949 53.9859 133.968C53.625 130.668 54.3125 126.646 56.0055 124.171L43.7594 117.88C40.7859 121.799 39.7805 129.534 40.3047 134.277C41.6883 146.859 51.8117 155.427 65.5274 155.427V155.418Z" fill="#120F0D"/>
<path d="M81.125 235.916C97.6336 235.916 108.015 223.438 106.709 210.641C104.586 189.492 81.4 188.77 79.9992 175.983C79.3375 170.002 82.818 165.052 89.0055 165.052C94.368 165.052 100.865 169.692 97.2984 181.345H111.014C115.895 167.63 106.184 153.39 89.0656 153.39C73.8031 153.39 64.9 165.352 66.1977 177.117C68.4578 197.648 90.8875 197.132 92.4945 211.776C93.1648 217.86 88.3523 223.841 81.0305 223.841C75.3586 223.841 70.2367 220.438 69.5836 214.457C69.2227 211.157 69.9102 207.135 71.6031 204.66L59.357 198.37C56.3836 202.288 55.3781 210.023 55.9024 214.766C57.2859 227.348 67.4094 235.907 81.125 235.907V235.916Z" fill="#120F0D"/>
<path d="M148.775 73.932C145.621 86.5133 142.673 99.1031 139.726 111.684H119.917C122.968 99.1031 126.019 86.5133 129.173 73.932H115.766C112.612 86.5133 109.665 99.1031 106.717 111.684H95.5797L92.9328 123.234H104.07C101.707 133.65 100.822 137.096 98.4586 147.512C102.661 147.916 106.623 149.703 110.387 152.702C112.647 142.287 114.907 133.65 117.27 123.226H137.07L133.409 139.219H147.065C152.883 112.398 155.427 100.736 162.173 73.9148H148.766L148.775 73.932Z" fill="#120F0D"/>
<path d="M183.279 140.662C177.066 140.662 173.198 136.391 172.27 127.944C170.448 111.349 178.174 88.0516 191.563 88.0516C197.39 88.0516 201.541 93.1992 202.452 101.449C204.213 117.468 195.895 140.662 183.279 140.662ZM183.081 152.986C205.502 152.986 217.869 122.409 215.454 100.47C213.821 85.6195 204.248 75.3328 191.718 75.3328C170.173 75.3328 156.707 103.873 159.448 128.717C160.978 142.596 169.4 152.986 183.081 152.986Z" fill="#120F0D"/>
<path fill-rule="evenodd" clip-rule="evenodd" d="M122.762 223.008C119.814 223.008 116.127 225.397 114.537 228.345C112.948 231.292 114.048 233.681 116.995 233.681C119.943 233.681 123.63 231.292 125.22 228.345C126.809 225.397 125.709 223.008 122.762 223.008Z" fill="#120F0D"/>
<path fill-rule="evenodd" clip-rule="evenodd" d="M161.614 223.008C158.666 223.008 154.98 225.397 153.39 228.345C151.8 231.292 152.9 233.681 155.848 233.681C158.795 233.681 162.482 231.292 164.072 228.345C165.662 225.397 164.562 223.008 161.614 223.008Z" fill="#120F0D"/>
<path d="M197.398 221.16C191.185 221.16 187.318 216.889 186.39 208.441C184.568 191.847 192.294 168.549 205.683 168.549C211.509 168.549 215.66 173.697 216.571 181.947C218.333 197.966 210.014 221.16 197.398 221.16ZM197.201 233.484C219.622 233.484 231.98 202.907 229.573 180.967C227.941 166.117 218.367 155.83 205.846 155.83C184.293 155.83 170.835 184.37 173.577 209.215C175.106 223.094 183.528 233.484 197.209 233.484H197.201Z" fill="#120F0D"/>
<path d="M241.648 72.3937C230.407 72.3937 221.624 76.0031 215.746 80.7469L222.956 90.9562C227.992 87.0375 234.91 84.2531 242.645 84.2531C252.751 84.2531 262.35 91.7812 263.347 100.856C265.014 116.016 252.235 126.44 238.829 125.512L245.094 97.1437H232.409C228.439 115.405 222.999 136.34 218.926 154.602H232.538C233.681 149.033 234.902 143.258 236.216 137.38C257.383 139.442 278.669 124.798 275.937 99.9367C274.373 85.7055 260.012 72.3937 241.656 72.3937H241.648Z" fill="#120F0D"/>
<path d="M255.767 152.891C244.527 152.891 235.744 156.501 229.866 161.245L237.076 171.454C242.112 167.535 249.021 164.751 256.764 164.751C266.87 164.751 276.469 172.279 277.466 181.354C279.134 196.513 266.355 206.938 252.948 206.009L259.213 177.641H246.529C242.559 195.895 237.119 216.837 233.045 235.091H246.658C247.801 229.522 249.021 223.747 250.336 217.869C271.502 219.931 292.789 205.287 290.056 180.426C288.492 166.195 274.132 152.883 255.776 152.883L255.767 152.891Z" fill="#120F0D"/>
<path fill-rule="evenodd" clip-rule="evenodd" d="M132.584 143.438L116.669 210.401L121.086 214.474L121.447 220.292L123.982 220.327L125.409 214.998L123.234 210.152L132.808 175.218L140.018 167.449L145.57 143.301L132.584 143.438Z" fill="#120F0D"/>
<path fill-rule="evenodd" clip-rule="evenodd" d="M161.047 168.893L157.317 211.888L158.727 216.081V221.427H161.881L163.324 214.998L175.304 162.052L161.047 168.893Z" fill="#120F0D"/>
<path fill-rule="evenodd" clip-rule="evenodd" d="M175.304 162.052L120.639 167.741L121.18 175.734L171.746 172.262L175.304 162.052Z" fill="#120F0D"/>
<path fill-rule="evenodd" clip-rule="evenodd" d="M163.307 207.445L110.859 210.925L114.073 214.552L161.88 214.998L163.307 207.445Z" fill="#120F0D"/>
<path fill-rule="evenodd" clip-rule="evenodd" d="M151.087 192.586L140.551 193.299L142.33 178.183L157.317 176.516L155.805 189.105L151.087 192.586Z" fill="#8081BB"/>
<path fill-rule="evenodd" clip-rule="evenodd" d="M151.293 203.242L143.421 203.835L143.344 199.066L146.429 195.869L151.448 195.757L155.048 198.937L151.293 203.242Z" fill="#E088AF"/>
<path fill-rule="evenodd" clip-rule="evenodd" d="M137.019 194.898L129.869 199.091L128.657 206.216L140.061 205.691L137.019 194.898Z" fill="#57B183"/>
<path fill-rule="evenodd" clip-rule="evenodd" d="M132.447 190.884L135.111 190.248L137.457 191.744L138.918 178.741L136.821 179.979L135.163 178.071L132.447 190.884Z" fill="#EDB34E"/>
<path d="M255.097 235.22L255.638 232.822H258.036L257.494 235.22H255.097Z" fill="#120F0D"/>
<path d="M259.944 235.22L262.788 222.716H265.186L262.341 235.22H259.944Z" fill="#120F0D"/>
<path d="M270.789 230.863C270.462 230.966 269.947 231.086 269.251 231.232C268.555 231.378 268.091 231.516 267.85 231.653C267.489 231.877 267.266 232.16 267.188 232.495C267.111 232.83 267.171 233.123 267.369 233.363C267.566 233.604 267.85 233.733 268.237 233.733C268.666 233.733 269.113 233.587 269.569 233.303C269.904 233.088 270.162 232.822 270.325 232.513C270.437 232.306 270.557 231.92 270.686 231.344L270.798 230.863H270.789ZM268.022 228.92L265.934 228.525C266.38 227.648 266.948 227.004 267.635 226.583C268.331 226.162 269.259 225.955 270.437 225.955C271.502 225.955 272.276 226.084 272.74 226.334C273.204 226.583 273.505 226.909 273.625 227.296C273.745 227.683 273.694 228.396 273.453 229.445L272.791 232.246C272.611 233.045 272.516 233.63 272.508 234.008C272.499 234.386 272.551 234.79 272.662 235.22H270.291C270.265 235.065 270.239 234.824 270.222 234.515C270.222 234.369 270.205 234.274 270.205 234.231C269.706 234.627 269.199 234.927 268.684 235.125C268.177 235.323 267.652 235.426 267.119 235.426C266.191 235.426 265.512 235.177 265.091 234.67C264.67 234.163 264.55 233.527 264.722 232.753C264.842 232.238 265.066 231.782 265.401 231.387C265.736 230.983 266.148 230.682 266.638 230.467C267.128 230.252 267.807 230.072 268.675 229.909C269.844 229.702 270.66 229.505 271.141 229.324L271.193 229.084C271.296 228.62 271.262 228.293 271.073 228.095C270.892 227.898 270.48 227.803 269.852 227.803C269.423 227.803 269.07 227.889 268.795 228.052C268.52 228.216 268.262 228.516 268.013 228.938L268.022 228.92Z" fill="#120F0D"/>
<path fill-rule="evenodd" clip-rule="evenodd" d="M148.827 301.718C148.827 302.07 148.543 302.354 148.191 302.354H119.127C118.774 302.354 118.491 302.07 118.491 301.718C118.491 301.366 118.774 301.082 119.127 301.082H148.191C148.543 301.082 148.827 301.366 148.827 301.718Z" fill="#8081BB"/>
<path fill-rule="evenodd" clip-rule="evenodd" d="M172.554 301.718C172.554 302.07 172.27 302.354 171.918 302.354H156.802C156.449 302.354 156.166 302.07 156.166 301.718C156.166 301.366 156.449 301.082 156.802 301.082H171.918C172.27 301.082 172.554 301.366 172.554 301.718Z" fill="#E088AF"/>
<path fill-rule="evenodd" clip-rule="evenodd" d="M187.773 301.718C187.773 302.07 187.49 302.354 187.138 302.354H180.538C180.185 302.354 179.902 302.07 179.902 301.718C179.902 301.366 180.185 301.082 180.538 301.082H187.138C187.49 301.082 187.773 301.366 187.773 301.718Z" fill="#EDB24E"/>
<path fill-rule="evenodd" clip-rule="evenodd" d="M211.509 301.718C211.509 302.07 211.226 302.354 210.873 302.354H195.757C195.405 302.354 195.121 302.07 195.121 301.718C195.121 301.366 195.405 301.082 195.757 301.082H210.873C211.226 301.082 211.509 301.366 211.509 301.718Z" fill="#57B183"/>
<path d="M67.9422 291.483C67.5297 291.698 67.0227 291.809 66.4039 291.809C65.6133 291.809 64.9773 291.552 64.5047 291.045C64.032 290.538 63.7914 289.867 63.7914 289.042C63.7914 288.148 64.0578 287.435 64.5906 286.885C65.1234 286.335 65.8023 286.06 66.6273 286.06C67.1516 286.06 67.5898 286.138 67.9422 286.292V286.988C67.5469 286.765 67.1 286.653 66.6187 286.653C65.9828 286.653 65.4586 286.868 65.0633 287.289C64.668 287.719 64.4703 288.286 64.4703 288.999C64.4703 289.713 64.6594 290.22 65.0289 290.623C65.3984 291.027 65.8883 291.225 66.4898 291.225C67.0484 291.225 67.5297 291.105 67.9422 290.856V291.491V291.483Z" fill="#120F0D"/>
<path d="M73.8289 291.715H70.9414V286.155H71.5945V291.13H73.8289V291.715Z" fill="#120F0D"/>
<path d="M78.5727 286.653C77.9883 286.653 77.5156 286.868 77.1461 287.289C76.7852 287.71 76.5961 288.26 76.5961 288.948C76.5961 289.635 76.7766 290.185 77.1289 290.606C77.4813 291.027 77.9453 291.234 78.5211 291.234C79.1313 291.234 79.6125 291.036 79.9649 290.632C80.3172 290.237 80.4891 289.678 80.4891 288.956C80.4891 288.234 80.3172 287.65 79.9735 287.255C79.6297 286.851 79.1571 286.653 78.5641 286.653H78.5727ZM78.5297 291.809C77.7391 291.809 77.1117 291.552 76.6305 291.027C76.1492 290.503 75.9172 289.833 75.9172 288.999C75.9172 288.106 76.1578 287.392 76.6477 286.859C77.1289 286.327 77.7906 286.06 78.6242 286.06C79.3891 286.06 80.0078 286.318 80.4805 286.834C80.9531 287.349 81.1852 288.028 81.1852 288.862C81.1852 289.773 80.9446 290.486 80.4633 291.019C79.9821 291.552 79.3375 291.809 78.5297 291.809Z" fill="#120F0D"/>
<path d="M88.2148 289.463C88.2148 291.027 87.5102 291.809 86.1008 291.809C84.6914 291.809 84.0727 291.062 84.0727 289.558V286.155H84.7258V289.515C84.7258 290.658 85.207 291.225 86.1695 291.225C87.132 291.225 87.5617 290.675 87.5617 289.575V286.155H88.2148V289.472V289.463Z" fill="#120F0D"/>
<path d="M92.125 286.739V291.122H92.9586C93.6891 291.122 94.2563 290.924 94.6602 290.538C95.0641 290.151 95.2704 289.592 95.2704 288.879C95.2704 287.452 94.5141 286.739 92.993 286.739H92.125ZM91.4719 291.715V286.155H93.0102C94.9696 286.155 95.9493 287.057 95.9493 288.87C95.9493 289.73 95.6743 290.417 95.1329 290.941C94.5914 291.466 93.861 291.723 92.95 291.723H91.4719V291.715Z" fill="#120F0D"/>
<path d="M106.459 291.483C106.047 291.698 105.54 291.809 104.921 291.809C104.13 291.809 103.495 291.552 103.022 291.045C102.549 290.538 102.309 289.867 102.309 289.042C102.309 288.148 102.575 287.435 103.108 286.885C103.641 286.335 104.32 286.06 105.145 286.06C105.669 286.06 106.107 286.138 106.459 286.292V286.988C106.064 286.765 105.626 286.653 105.145 286.653C104.509 286.653 103.984 286.868 103.589 287.289C103.194 287.719 102.996 288.286 102.996 288.999C102.996 289.713 103.185 290.22 103.555 290.623C103.924 291.027 104.414 291.225 105.016 291.225C105.574 291.225 106.055 291.105 106.468 290.856V291.491L106.459 291.483Z" fill="#120F0D"/>
<path d="M111.538 286.653C110.954 286.653 110.481 286.868 110.112 287.289C109.751 287.71 109.562 288.26 109.562 288.948C109.562 289.635 109.742 290.185 110.095 290.606C110.447 291.027 110.911 291.234 111.487 291.234C112.097 291.234 112.578 291.036 112.93 290.632C113.283 290.237 113.455 289.678 113.455 288.956C113.455 288.234 113.283 287.65 112.939 287.255C112.595 286.851 112.123 286.653 111.53 286.653H111.538ZM111.495 291.809C110.705 291.809 110.077 291.552 109.596 291.027C109.123 290.512 108.883 289.833 108.883 288.999C108.883 288.106 109.123 287.392 109.605 286.859C110.086 286.327 110.748 286.06 111.581 286.06C112.346 286.06 112.965 286.318 113.438 286.834C113.91 287.349 114.142 288.028 114.142 288.862C114.142 289.773 113.902 290.486 113.42 291.019C112.939 291.552 112.295 291.809 111.487 291.809H111.495Z" fill="#120F0D"/>
<path d="M122.788 291.715H122.143V287.985C122.143 287.693 122.16 287.332 122.195 286.902H122.177C122.117 287.152 122.057 287.332 122.014 287.444L120.115 291.723H119.797L117.898 287.478C117.846 287.358 117.786 287.16 117.734 286.911H117.717C117.734 287.134 117.752 287.495 117.752 288.002V291.723H117.124V286.163H117.984L119.694 290.039C119.823 290.34 119.909 290.555 119.952 290.709H119.977C120.089 290.4 120.175 290.177 120.244 290.03L121.988 286.163H122.805V291.723L122.788 291.715Z" fill="#120F0D"/>
<path d="M131.785 291.715H131.141V287.985C131.141 287.693 131.158 287.332 131.192 286.902H131.175C131.115 287.152 131.055 287.332 131.012 287.444L129.112 291.723H128.795L126.895 287.478C126.844 287.358 126.784 287.16 126.732 286.911H126.715C126.732 287.134 126.749 287.495 126.749 288.002V291.723H126.122V286.163H126.981L128.691 290.039C128.82 290.34 128.906 290.555 128.949 290.709H128.975C129.087 290.4 129.173 290.177 129.241 290.03L130.986 286.163H131.802V291.723L131.785 291.715Z" fill="#120F0D"/>
<path d="M138.067 291.715H135.12V286.155H137.947V286.739H135.773V288.595H137.784V289.18H135.773V291.13H138.067V291.715Z" fill="#120F0D"/>
<path d="M141.659 286.739V288.759H142.545C142.708 288.759 142.863 288.733 143 288.681C143.138 288.63 143.258 288.561 143.361 288.466C143.464 288.372 143.541 288.26 143.593 288.131C143.653 288.002 143.679 287.848 143.679 287.684C143.679 287.384 143.584 287.152 143.387 286.988C143.189 286.825 142.914 286.739 142.553 286.739H141.659ZM144.994 291.715H144.22L143.292 290.159C143.206 290.013 143.12 289.893 143.043 289.79C142.966 289.687 142.88 289.601 142.794 289.541C142.708 289.472 142.622 289.429 142.519 289.403C142.424 289.377 142.313 289.36 142.192 289.36H141.659V291.723H141.006V286.163H142.665C142.905 286.163 143.129 286.198 143.335 286.258C143.541 286.318 143.722 286.413 143.868 286.533C144.023 286.653 144.134 286.808 144.22 286.997C144.306 287.186 144.349 287.401 144.349 287.65C144.349 287.848 144.323 288.02 144.263 288.183C144.203 288.346 144.126 288.492 144.014 288.612C143.911 288.741 143.773 288.845 143.627 288.939C143.473 289.025 143.309 289.094 143.12 289.145V289.163C143.215 289.205 143.292 289.248 143.361 289.3C143.43 289.352 143.498 289.412 143.559 289.489C143.619 289.558 143.679 289.644 143.748 289.738C143.808 289.833 143.877 289.936 143.954 290.056L144.994 291.732V291.715Z" fill="#120F0D"/>
<path d="M151.302 291.483C150.889 291.698 150.382 291.809 149.763 291.809C148.973 291.809 148.337 291.552 147.864 291.045C147.391 290.538 147.151 289.867 147.151 289.042C147.151 288.148 147.417 287.435 147.95 286.885C148.483 286.335 149.162 286.06 149.987 286.06C150.511 286.06 150.949 286.138 151.302 286.292V286.988C150.906 286.765 150.468 286.653 149.987 286.653C149.351 286.653 148.827 286.868 148.431 287.289C148.036 287.719 147.838 288.286 147.838 288.999C147.838 289.713 148.027 290.22 148.397 290.623C148.766 291.027 149.256 291.225 149.858 291.225C150.416 291.225 150.898 291.105 151.31 290.856V291.491L151.302 291.483Z" fill="#120F0D"/>
<path d="M157.257 291.715H154.309V286.155H157.128V286.739H154.954V288.595H156.965V289.18H154.954V291.13H157.257V291.715Z" fill="#120F0D"/>
<path d="M166.787 286.739H164.613V288.664H166.624V289.257H164.613V291.715H163.96V286.155H166.787V286.739Z" fill="#120F0D"/>
<path d="M171.995 286.653C171.411 286.653 170.938 286.868 170.569 287.289C170.208 287.71 170.019 288.26 170.019 288.948C170.019 289.635 170.199 290.185 170.552 290.606C170.904 291.027 171.368 291.234 171.944 291.234C172.554 291.234 173.035 291.036 173.387 290.632C173.74 290.237 173.912 289.678 173.912 288.956C173.912 288.234 173.74 287.65 173.396 287.255C173.052 286.851 172.58 286.653 171.987 286.653H171.995ZM171.952 291.809C171.162 291.809 170.534 291.552 170.062 291.027C169.589 290.512 169.348 289.833 169.348 288.999C169.348 288.106 169.589 287.392 170.07 286.859C170.552 286.327 171.213 286.06 172.047 286.06C172.812 286.06 173.43 286.318 173.903 286.834C174.376 287.349 174.608 288.028 174.608 288.862C174.608 289.773 174.367 290.486 173.886 291.019C173.405 291.543 172.76 291.809 171.952 291.809Z" fill="#120F0D"/>
<path d="M178.217 286.739V288.759H179.102C179.266 288.759 179.412 288.733 179.558 288.681C179.695 288.63 179.816 288.561 179.919 288.466C180.022 288.372 180.099 288.26 180.159 288.131C180.22 288.002 180.245 287.848 180.245 287.684C180.245 287.384 180.151 287.152 179.953 286.988C179.755 286.825 179.48 286.739 179.12 286.739H178.226H178.217ZM181.552 291.715H180.778L179.85 290.159C179.764 290.013 179.678 289.893 179.601 289.79C179.523 289.687 179.437 289.601 179.352 289.541C179.266 289.472 179.18 289.429 179.077 289.403C178.982 289.377 178.87 289.36 178.75 289.36H178.217V291.723H177.564V286.163H179.223C179.463 286.163 179.687 286.198 179.893 286.258C180.099 286.318 180.28 286.413 180.426 286.533C180.58 286.653 180.692 286.808 180.778 286.997C180.864 287.186 180.907 287.401 180.907 287.65C180.907 287.848 180.881 288.02 180.821 288.183C180.761 288.346 180.684 288.492 180.572 288.612C180.469 288.741 180.34 288.845 180.185 288.939C180.03 289.025 179.867 289.094 179.678 289.145V289.163C179.773 289.205 179.85 289.248 179.919 289.3C179.987 289.352 180.056 289.412 180.116 289.489C180.177 289.558 180.237 289.644 180.297 289.738C180.357 289.833 180.426 289.936 180.503 290.056L181.543 291.732L181.552 291.715Z" fill="#120F0D"/>
<path d="M191.572 286.155L189.733 289.661V291.715H189.08V289.678L187.292 286.155H188.031L189.277 288.673C189.277 288.673 189.337 288.819 189.415 289.016H189.423C189.449 288.93 189.501 288.819 189.57 288.673L190.876 286.155H191.563H191.572Z" fill="#120F0D"/>
<path d="M196.195 286.653C195.611 286.653 195.138 286.868 194.769 287.289C194.399 287.71 194.219 288.26 194.219 288.948C194.219 289.635 194.399 290.185 194.752 290.606C195.104 291.027 195.568 291.234 196.144 291.234C196.754 291.234 197.235 291.036 197.588 290.632C197.94 290.237 198.112 289.678 198.112 288.956C198.112 288.234 197.94 287.65 197.596 287.255C197.252 286.851 196.78 286.653 196.187 286.653H196.195ZM196.152 291.809C195.362 291.809 194.734 291.552 194.253 291.027C193.78 290.512 193.54 289.833 193.54 288.999C193.54 288.106 193.78 287.392 194.262 286.859C194.743 286.327 195.405 286.06 196.238 286.06C197.003 286.06 197.622 286.318 198.095 286.834C198.567 287.349 198.799 288.028 198.799 288.862C198.799 289.773 198.559 290.486 198.077 291.019C197.596 291.552 196.952 291.809 196.144 291.809H196.152Z" fill="#120F0D"/>
<path d="M205.838 289.463C205.838 291.027 205.133 291.809 203.723 291.809C202.314 291.809 201.695 291.062 201.695 289.558V286.155H202.348V289.515C202.348 290.658 202.83 291.225 203.792 291.225C204.755 291.225 205.184 290.675 205.184 289.575V286.155H205.838V289.472V289.463Z" fill="#120F0D"/>
<path d="M209.748 286.739V288.759H210.633C210.796 288.759 210.942 288.733 211.088 288.681C211.226 288.63 211.346 288.561 211.449 288.466C211.552 288.372 211.63 288.26 211.69 288.131C211.75 288.002 211.776 287.848 211.776 287.684C211.776 287.384 211.681 287.152 211.484 286.988C211.286 286.825 211.011 286.739 210.65 286.739H209.756H209.748ZM213.082 291.715H212.309L211.38 290.159C211.295 290.013 211.209 289.893 211.131 289.79C211.054 289.687 210.968 289.601 210.882 289.541C210.796 289.472 210.71 289.429 210.607 289.403C210.504 289.377 210.401 289.36 210.28 289.36H209.748V291.723H209.095V286.163H210.753C210.994 286.163 211.217 286.198 211.423 286.258C211.63 286.318 211.81 286.413 211.956 286.533C212.111 286.653 212.223 286.808 212.309 286.997C212.395 287.186 212.438 287.401 212.438 287.65C212.438 287.848 212.412 288.02 212.352 288.183C212.291 288.346 212.214 288.492 212.102 288.612C211.999 288.741 211.862 288.845 211.716 288.939C211.561 289.025 211.398 289.094 211.209 289.145V289.163C211.303 289.205 211.38 289.248 211.449 289.3C211.518 289.352 211.587 289.412 211.647 289.489C211.707 289.558 211.767 289.644 211.827 289.738C211.888 289.833 211.956 289.936 212.034 290.056L213.073 291.732L213.082 291.715Z" fill="#120F0D"/>
<path d="M220.129 289.128V291.13H221.014C221.401 291.13 221.693 291.036 221.908 290.856C222.114 290.675 222.226 290.426 222.226 290.108C222.226 289.455 221.779 289.12 220.885 289.12H220.138L220.129 289.128ZM220.129 286.739V288.535H220.799C221.16 288.535 221.435 288.449 221.641 288.277C221.848 288.106 221.951 287.865 221.951 287.547C221.951 287.006 221.598 286.739 220.885 286.739H220.138H220.129ZM219.484 291.715V286.155H221.066C221.547 286.155 221.925 286.275 222.209 286.507C222.492 286.739 222.63 287.048 222.63 287.427C222.63 287.745 222.544 288.02 222.372 288.252C222.2 288.484 221.968 288.647 221.667 288.75V288.767C222.045 288.81 222.346 288.956 222.57 289.188C222.793 289.429 222.905 289.738 222.905 290.125C222.905 290.598 222.733 290.984 222.389 291.285C222.045 291.577 221.616 291.723 221.1 291.723H219.476L219.484 291.715Z" fill="#120F0D"/>
<path d="M229.977 289.463C229.977 291.027 229.273 291.809 227.863 291.809C226.454 291.809 225.835 291.062 225.835 289.558V286.155H226.488V289.515C226.488 290.658 226.97 291.225 227.932 291.225C228.895 291.225 229.324 290.675 229.324 289.575V286.155H229.977V289.472V289.463Z" fill="#120F0D"/>
<path d="M232.977 291.491V290.727C233.062 290.804 233.174 290.873 233.295 290.933C233.415 290.993 233.544 291.045 233.681 291.088C233.819 291.131 233.956 291.165 234.094 291.191C234.231 291.216 234.36 291.225 234.472 291.225C234.876 291.225 235.177 291.148 235.374 291.002C235.572 290.856 235.675 290.641 235.675 290.357C235.675 290.211 235.641 290.073 235.58 289.962C235.512 289.85 235.426 289.747 235.305 289.661C235.185 289.566 235.048 289.481 234.893 289.395C234.738 289.309 234.558 289.223 234.377 289.128C234.18 289.034 233.999 288.931 233.836 288.827C233.664 288.724 233.527 288.613 233.398 288.492C233.277 288.372 233.174 288.234 233.105 288.08C233.037 287.925 233.002 287.745 233.002 287.538C233.002 287.289 233.063 287.066 233.166 286.877C233.277 286.688 233.423 286.533 233.604 286.413C233.784 286.292 233.991 286.198 234.223 286.138C234.455 286.077 234.687 286.052 234.927 286.052C235.477 286.052 235.873 286.12 236.13 286.249V286.98C235.804 286.756 235.383 286.636 234.867 286.636C234.721 286.636 234.584 286.653 234.437 286.679C234.291 286.705 234.171 286.756 234.059 286.825C233.948 286.894 233.862 286.98 233.784 287.083C233.716 287.186 233.681 287.315 233.681 287.47C233.681 287.616 233.707 287.736 233.759 287.839C233.81 287.942 233.887 288.037 233.991 288.123C234.094 288.209 234.223 288.295 234.369 288.372C234.515 288.449 234.687 288.544 234.884 288.638C235.082 288.733 235.271 288.836 235.452 288.948C235.632 289.059 235.787 289.18 235.924 289.309C236.062 289.438 236.165 289.584 236.242 289.747C236.32 289.91 236.363 290.091 236.363 290.297C236.363 290.572 236.311 290.804 236.199 290.993C236.088 291.182 235.95 291.337 235.761 291.457C235.58 291.577 235.366 291.663 235.134 291.715C234.893 291.766 234.644 291.792 234.377 291.792C234.291 291.792 234.18 291.792 234.051 291.775C233.922 291.758 233.793 291.741 233.655 291.715C233.518 291.689 233.398 291.655 233.277 291.612C233.157 291.569 233.062 291.526 232.985 291.474L232.977 291.491Z" fill="#120F0D"/>
<path d="M239.972 286.155H239.319V291.715H239.972V286.155Z" fill="#120F0D"/>
<path d="M247.792 291.715H246.993L244.131 287.281C244.062 287.169 244.002 287.057 243.951 286.928H243.925C243.942 287.048 243.959 287.298 243.959 287.693V291.715H243.306V286.155H244.148L246.933 290.52C247.044 290.701 247.122 290.83 247.156 290.89H247.173C247.148 290.727 247.13 290.46 247.13 290.073V286.155H247.784V291.715H247.792Z" fill="#120F0D"/>
<path d="M254.066 291.715H251.118V286.155H253.945V286.739H251.771V288.595H253.782V289.18H251.771V291.13H254.066V291.715Z" fill="#120F0D"/>
<path d="M256.747 291.491V290.727C256.833 290.804 256.936 290.873 257.065 290.933C257.185 290.993 257.314 291.045 257.451 291.088C257.589 291.131 257.726 291.165 257.864 291.191C258.001 291.216 258.13 291.225 258.242 291.225C258.646 291.225 258.947 291.148 259.144 291.002C259.342 290.856 259.437 290.641 259.437 290.357C259.437 290.211 259.402 290.073 259.342 289.962C259.273 289.85 259.187 289.747 259.067 289.661C258.947 289.566 258.809 289.481 258.655 289.395C258.5 289.309 258.319 289.223 258.139 289.128C257.941 289.034 257.761 288.931 257.598 288.827C257.426 288.724 257.28 288.613 257.159 288.492C257.039 288.372 256.936 288.234 256.867 288.08C256.798 287.925 256.764 287.745 256.764 287.538C256.764 287.289 256.824 287.066 256.927 286.877C257.039 286.688 257.185 286.533 257.366 286.413C257.546 286.292 257.752 286.198 257.984 286.138C258.216 286.077 258.448 286.052 258.689 286.052C259.239 286.052 259.634 286.12 259.883 286.249V286.98C259.557 286.756 259.136 286.636 258.62 286.636C258.483 286.636 258.337 286.653 258.191 286.679C258.053 286.705 257.924 286.756 257.812 286.825C257.701 286.894 257.615 286.98 257.537 287.083C257.469 287.186 257.434 287.315 257.434 287.47C257.434 287.616 257.46 287.736 257.512 287.839C257.563 287.942 257.641 288.037 257.744 288.123C257.847 288.209 257.976 288.295 258.122 288.372C258.268 288.449 258.44 288.544 258.637 288.638C258.835 288.733 259.024 288.836 259.205 288.948C259.385 289.059 259.54 289.18 259.677 289.309C259.815 289.438 259.918 289.584 259.995 289.747C260.073 289.91 260.115 290.091 260.115 290.297C260.115 290.572 260.064 290.804 259.952 290.993C259.849 291.182 259.703 291.337 259.514 291.457C259.333 291.577 259.119 291.663 258.887 291.715C258.646 291.766 258.397 291.792 258.13 291.792C258.044 291.792 257.933 291.792 257.804 291.775C257.675 291.758 257.546 291.741 257.408 291.715C257.271 291.689 257.151 291.655 257.03 291.612C256.91 291.569 256.816 291.526 256.738 291.474L256.747 291.491Z" fill="#120F0D"/>
<path d="M262.84 291.491V290.727C262.926 290.804 263.029 290.873 263.158 290.933C263.278 290.993 263.407 291.045 263.544 291.088C263.682 291.131 263.819 291.165 263.957 291.191C264.094 291.216 264.223 291.225 264.335 291.225C264.739 291.225 265.04 291.148 265.237 291.002C265.435 290.856 265.53 290.641 265.53 290.357C265.53 290.211 265.495 290.073 265.435 289.962C265.366 289.85 265.28 289.747 265.16 289.661C265.04 289.566 264.911 289.481 264.748 289.395C264.593 289.309 264.421 289.223 264.232 289.128C264.043 289.034 263.854 288.931 263.691 288.827C263.519 288.724 263.381 288.613 263.252 288.492C263.132 288.372 263.029 288.234 262.96 288.08C262.891 287.925 262.857 287.745 262.857 287.538C262.857 287.289 262.917 287.066 263.02 286.877C263.132 286.688 263.278 286.533 263.459 286.413C263.639 286.292 263.845 286.198 264.077 286.138C264.309 286.077 264.541 286.052 264.782 286.052C265.332 286.052 265.727 286.12 265.985 286.249V286.98C265.659 286.756 265.237 286.636 264.722 286.636C264.576 286.636 264.438 286.653 264.292 286.679C264.146 286.705 264.026 286.756 263.914 286.825C263.802 286.894 263.716 286.98 263.639 287.083C263.57 287.186 263.536 287.315 263.536 287.47C263.536 287.616 263.562 287.736 263.613 287.839C263.665 287.942 263.742 288.037 263.845 288.123C263.948 288.209 264.077 288.295 264.223 288.372C264.369 288.449 264.541 288.544 264.739 288.638C264.937 288.733 265.126 288.836 265.306 288.948C265.487 289.059 265.641 289.18 265.779 289.309C265.916 289.438 266.019 289.584 266.097 289.747C266.174 289.91 266.217 290.091 266.217 290.297C266.217 290.572 266.166 290.804 266.054 290.993C265.942 291.182 265.805 291.337 265.616 291.457C265.435 291.577 265.22 291.663 264.988 291.715C264.748 291.766 264.498 291.792 264.232 291.792C264.146 291.792 264.034 291.792 263.905 291.775C263.776 291.758 263.648 291.741 263.51 291.715C263.373 291.689 263.252 291.655 263.123 291.612C263.003 291.569 262.909 291.526 262.831 291.474L262.84 291.491Z" fill="#120F0D"/>
</g>
</g>
<defs>
<clipPath id="clip0_5_3">
<rect width="330" height="330" fill="white"/>
</clipPath>
</defs>
</svg>
